<?xml version="1.0" encoding="iso-8859-1"?>
<!-- Uploaded to: SVG Repo, www.svgrepo.com, Generator: SVG Repo Mixer Tools -->
<svg fill="#000000" height="800px" width="800px" version="1.1" id="Layer_1" xmlns="http://www.w3.org/2000/svg" xmlns:xlink="http://www.w3.org/1999/xlink" 
	 viewBox="0 0 512 512" xml:space="preserve">
<g>
	<g>
		<path d="M496,108.132H273.456l-72.584-71.256H0v87.232c0,0.008,0,0.016,0,0.024v334.992c0,8.8,7.2,16,16,16h480
			c8.8,0,16-7.2,16-16V124.132C512,115.332,504.8,108.132,496,108.132z M32,68.876h155.792l39.992,39.256H32V68.876z M480,443.124
			H32V159.62v-19.496h448V443.124z"/>
	</g>
</g>
<g>
	<g>
		<path d="M316.816,266.204v-26.08c0-33.552-27.304-60.848-60.856-60.848s-60.848,27.296-60.848,60.848v26.08H169.36v137.68h173.28
			v-137.68H316.816z M269.688,343.66v30.112H242.32V343.66c-7.208-4.576-12.048-12.568-12.048-21.688
			c0-14.152,11.576-25.728,25.728-25.728s25.728,11.576,25.728,25.728C281.728,331.084,276.888,339.084,269.688,343.66z
			 M284.808,266.204h-57.712v-26.08h0.008c0-15.904,12.944-28.848,28.848-28.848c15.912,0,28.856,12.944,28.856,28.848V266.204z"/>
	</g>
</g>
</svg>